# xmcd
#
# Track frame offsets:
#	150
#	20822
#	34332
#	39308
#	47507
#	56961
#	67739
#	86619
#	99529
#	109296
#	120467
#	141341
#	165038
#	170629
#	178627
#	209938
#	224500
#
# Disc length: 3154 seconds
#
# Revision: 0
# Processed by: cddbd v1.5.1PL0 Copyright (c) Steve Scherf et al.
# Submitted via: audiograbber 1.82.01
#
DISCID=f90c5011
DTITLE=Diverse Interpreten - Die MarschParade CD 2
DYEAR=2004
DGENRE=Marsch
TTITLE0=Rundfunk Blasorchester Leipzig - Alte Kameraden
TTITLE1=Zentrales Orchester der NVA - Marsch der finnländischen Reiterei aus de
TTITLE1=m 30jährigen Krieg
TTITLE2=Zentrales Orchester der NVA - Marsch der freiwilligen Jäger aus den Bef
TTITLE2=reiungskriegen
TTITLE3=Zentrales Orchester der NVA - Marsch des Preobreshansker Regiments
TTITLE4=Zentrales Orchester der NVA - Marsch des Petschorski-Regiments
TTITLE5=Orchester des Wachregiments 'Feliks Dzierzynsky' - Lagermarsch
TTITLE6=Orchester des Wachregiments 'Feliks Dzierzynsky' - Venetia-Marsch
TTITLE7=Zentrales Orchester der NVA - Militärmarsch No. 2 F-Dur
TTITLE8=Orchester des Wachregiments 'Feliks Dzierzynsky' - Mit Hörner- und Trom
TTITLE8=petenklang
TTITLE9=Großes Berliner Blasorchester - Folies Bergère
TTITLE10=Zentrales Militärorchester Berlin - Militärmarsch No. 1
TTITLE11=Zentrales Militärorchester Berlin - Militärmarsch No. 2
TTITLE12=Zentrales Militärorchester Berlin - Ecossaise D-Dur
TTITLE13=Zentrales Militärorchester Berlin - Marsch nach Motiven der Oper 'Die 
TTITLE13=Hugenotten'
TTITLE14=Zentrales Militärorchester Berlin - Marsch D-Dur
TTITLE15=Zentrales Militärorchester Berlin - Marsch aus 'Gasperone'
TTITLE16=Zentrales Militärorchester Berlin - Luxemburg-Marsch
EXTD=
EXTT0=
EXTT1=
EXTT2=
EXTT3=
EXTT4=
EXTT5=
EXTT6=
EXTT7=
EXTT8=
EXTT9=
EXTT10=
EXTT11=
EXTT12=
EXTT13=
EXTT14=
EXTT15=
EXTT16=
PLAYORDER=
